<?xml version="1.0" encoding="UTF-8"?> <svg xmlns="http://www.w3.org/2000/svg" width="406" height="422" viewBox="0 0 406 422" fill="none"><path d="M298.175 8.1047C288.244 19.3724 288.695 32.8935 299.078 42.3584C311.266 53.626 331.58 50.0204 339.705 35.5978C345.574 24.7808 345.574 22.5273 338.803 11.7103C329.323 -2.26155 309.009 -4.06437 298.175 8.1047Z" fill="#BCB0F2"></path><path d="M177.175 381.105C167.244 392.372 167.695 405.894 178.078 415.358C190.266 426.626 210.58 423.02 218.705 408.598C224.574 397.781 224.574 395.527 217.803 384.71C208.323 370.738 188.009 368.936 177.175 381.105Z" fill="#BCB0F2"></path><path d="M106.09 24.225C29.4905 46.1195 -16.3798 127.442 5.44201 202.509C9.45009 216.361 16.1302 231.553 20.1383 236.915C27.7092 246.298 29.0452 246.298 44.6322 240.043C53.9844 236.021 67.79 232.893 75.8062 232.893C108.316 233.34 147.952 262.831 153.741 291.428C156.859 307.96 166.656 307.96 199.612 292.768C229.895 278.917 254.834 255.235 269.976 226.191C280.219 206.977 282 198.488 282 163.635C282 116.718 272.202 91.2491 242.81 61.7585C208.964 27.7996 150.178 11.7138 106.09 24.225ZM146.17 45.2259C146.17 47.46 140.826 49.6941 133.701 49.6941C127.021 49.6941 114.996 51.4815 106.98 53.7156C89.6118 59.0775 87.8305 52.3751 105.199 46.1195C121.231 39.864 146.17 39.4171 146.17 45.2259ZM61.5552 79.1847C61.5552 80.5252 56.6565 87.6745 50.4216 95.2705C44.6322 102.42 37.0614 116.718 34.3893 126.995C23.2557 167.21 22.365 169.891 21.9197 151.124C21.4744 132.357 29.4905 110.016 43.7415 89.4618C52.203 77.8443 61.5552 72.4823 61.5552 79.1847Z" fill="#BCB0F2"></path><path d="M292.973 160.573C289.649 212.363 285.881 229.041 257.07 261.959C248.649 271.615 242 280.393 242 281.709C242 287.854 257.07 287.854 271.697 282.148C292.086 273.37 311.146 276.882 326.659 291.804C342.173 306.288 354.141 304.093 376.746 282.148C398.465 261.52 406 243.086 406 212.363C406 159.695 364.335 118 312.032 118H289.649L292.973 160.573Z" fill="#BCB0F2"></path><path d="M48.6489 248.766C17.0409 265.104 3.68545 289.391 7.6921 323.833C13.4795 376.379 75.3599 403.757 119.878 373.288C164.397 343.262 160.39 274.377 112.755 250.533C92.2769 239.935 66.9015 239.052 48.6489 248.766ZM41.9712 272.169C41.9712 274.377 38.8549 278.351 35.2935 281.442C31.732 284.533 27.7253 293.365 25.9446 301.754C24.6091 310.144 21.0476 316.768 18.8217 316.768C12.5891 316.768 17.9313 291.598 26.3898 278.351C33.0675 268.195 41.9712 264.663 41.9712 272.169Z" fill="#BCB0F2"></path><circle cx="293.5" cy="338.5" r="47.5" fill="#BCB0F2"></circle></svg>
